<?xml version="1.0" encoding="UTF-8"?>
<!DOCTYPE svg PUBLIC "-//W3C//DTD SVG 1.1//EN" "http://www.w3.org/Graphics/SVG/1.1/DTD/svg11.dtd">
<!-- Creator: CorelDRAW -->
<svg xmlns="http://www.w3.org/2000/svg" xml:space="preserve" width="67.7332mm" height="67.7332mm" version="1.1" style="shape-rendering:geometricPrecision; text-rendering:geometricPrecision; image-rendering:optimizeQuality; fill-rule:evenodd; clip-rule:evenodd"
viewBox="0 0 6773 6773"
 xmlns:xlink="http://www.w3.org/1999/xlink">
 <defs>
  <style type="text/css">
   <![CDATA[
    .fil5 {fill:#292929}
    .fil0 {fill:#FF3131}
    .fil2 {fill:#FF700D}
    .fil1 {fill:#FFA721}
    .fil3 {fill:#FFB84B}
    .fil4 {fill:white}
   ]]>
  </style>
 </defs>
 <g id="Layer_x0020_1">
  <metadata id="CorelCorpID_0Corel-Layer"/>
  <g id="_410411184">
   <path class="fil0" d="M1835 4788c-9,0 -19,-1 -28,-2 -58,-7 -109,-36 -144,-82 -658,-859 -576,-2085 190,-2851 766,-766 1992,-848 2851,-190 59,45 89,114 84,188 -6,74 -46,137 -111,173l-524 288c-104,58 -236,19 -293,-85 -58,-104 -20,-235 85,-293l201 -111c-660,-321 -1462,-191 -1988,335 -614,614 -679,1595 -152,2283 35,46 50,103 43,160 -8,57 -37,108 -83,143 -38,29 -84,44 -131,44z"/>
   <path class="fil0" d="M3384 5554c-462,0 -926,-146 -1315,-444 -59,-45 -90,-113 -84,-187 6,-75 46,-138 111,-173l524 -289c104,-57 236,-19 294,85 57,104 19,236 -85,294l-201 110c660,322 1461,192 1987,-335 614,-614 679,-1595 152,-2283 -35,-46 -50,-102 -42,-159 7,-58 37,-108 82,-143 46,-36 103,-51 160,-43 57,7 108,37 143,83 658,859 577,2084 -190,2850 -419,420 -977,634 -1536,634z"/>
   <path class="fil1" d="M3386 4466c-595,0 -1079,-484 -1079,-1079 0,-596 484,-1080 1079,-1080 596,0 1080,484 1080,1080 0,595 -484,1079 -1080,1079z"/>
   <path class="fil2" d="M2312 4435c-32,0 -62,-13 -84,-38 -243,-280 -379,-639 -379,-1011 0,-847 690,-1537 1537,-1537 89,0 177,8 264,23 60,11 101,68 90,128 -10,60 -68,100 -128,90 -74,-13 -150,-20 -226,-20 -725,0 -1316,591 -1316,1316 0,318 116,626 325,866 40,46 35,115 -10,155 -20,18 -46,28 -73,28zm1074 489c-88,0 -177,-8 -264,-23 -60,-11 -100,-68 -90,-128 11,-60 68,-101 128,-90 75,13 151,19 226,19 726,0 1316,-590 1316,-1315 0,-319 -115,-626 -324,-866 -40,-46 -36,-116 10,-156 46,-40 116,-35 156,10 245,280 380,640 380,1012 0,847 -690,1537 -1538,1537z"/>
   <path class="fil3" d="M3386 4284c-494,0 -897,-403 -897,-897 0,-495 403,-898 897,-898 495,0 898,403 898,898 0,494 -403,897 -898,897z"/>
   <path class="fil4" d="M3283 3969c-146,-45 -248,-180 -248,-335 0,-57 47,-104 104,-104 58,0 104,47 104,104 0,79 64,143 143,143 79,0 144,-64 144,-143 0,-79 -64,-144 -144,-144 -193,0 -351,-157 -351,-351 0,-154 102,-290 248,-335l0 -24c0,-57 46,-104 103,-104 58,0 104,47 104,104l0 24c146,45 248,181 248,335 0,58 -47,104 -104,104 -58,0 -104,-46 -104,-104 0,-79 -65,-143 -144,-143 -78,0 -143,65 -143,143 0,79 65,144 143,144 194,0 352,157 352,351 0,155 -102,290 -248,335l0 24c0,57 -46,104 -104,104 -57,0 -103,-47 -103,-104l0 -24z"/>
  </g>
  <path id="_341084808" class="fil0" d="M3387 0c1870,0 3386,1516 3386,3387 0,1870 -1516,3386 -3386,3386 -1871,0 -3387,-1516 -3387,-3386 0,-1871 1516,-3387 3387,-3387zm0 287c1712,0 3099,1388 3099,3100 0,1712 -1387,3100 -3099,3100 -1712,0 -3100,-1388 -3100,-3100 0,-1712 1388,-3100 3100,-3100z"/>
  <path id="_341084880" class="fil5" d="M3387 0c1870,0 3386,1516 3386,3387 0,1870 -1516,3386 -3386,3386 -1871,0 -3387,-1516 -3387,-3386 0,-1871 1516,-3387 3387,-3387zm0 101c1814,0 3285,1471 3285,3286 0,1814 -1471,3285 -3285,3285 -1815,0 -3286,-1471 -3286,-3285 0,-1815 1471,-3286 3286,-3286z"/>
 </g>
</svg>
